<svg width="64" height="64" viewBox="0 0 64 64" fill="none" xmlns="http://www.w3.org/2000/svg">
  <path d="M32 58.6667C46.7276 58.6667 58.6667 46.7276 58.6667 32C58.6667 17.2724 46.7276 5.33334 32 5.33334C17.2724 5.33334 5.33337 17.2724 5.33337 32C5.33337 46.7276 17.2724 58.6667 32 58.6667Z" fill="#0c89ee" />
  <path d="M21.3334 32C23.5425 32 25.3334 30.2091 25.3334 28C25.3334 25.7909 23.5425 24 21.3334 24C19.1242 24 17.3334 25.7909 17.3334 28C17.3334 30.2091 19.1242 32 21.3334 32Z" fill="white" />
  <path d="M16 42.6667C18.2091 42.6667 20 40.8758 20 38.6667C20 36.4575 18.2091 34.6667 16 34.6667C13.7909 34.6667 12 36.4575 12 38.6667C12 40.8758 13.7909 42.6667 16 42.6667Z" fill="#8a4bff" />
  <path d="M32 48C34.2091 48 36 46.2091 36 44C36 41.7909 34.2091 40 32 40C29.7909 40 28 41.7909 28 44C28 46.2091 29.7909 48 32 48Z" fill="#0fb8bc" />
  <path d="M48 42.6667C50.2092 42.6667 52 40.8758 52 38.6667C52 36.4575 50.2092 34.6667 48 34.6667C45.7909 34.6667 44 36.4575 44 38.6667C44 40.8758 45.7909 42.6667 48 42.6667Z" fill="#f43f5e" />
  <path d="M42.6667 32C44.8759 32 46.6667 30.2091 46.6667 28C46.6667 25.7909 44.8759 24 42.6667 24C40.4576 24 38.6667 25.7909 38.6667 28C38.6667 30.2091 40.4576 32 42.6667 32Z" fill="#fcb21e" />
  <path d="M32 21.3333C34.2092 21.3333 36 19.5425 36 17.3333C36 15.1242 34.2092 13.3333 32 13.3333C29.7909 13.3333 28 15.1242 28 17.3333C28 19.5425 29.7909 21.3333 32 21.3333Z" fill="#16b854" />
</svg>